<mxfile host="app.diagrams.net" agent="Mozilla/5.0 (Macintosh; Intel Mac OS X 10_15_7) AppleWebKit/537.36 (KHTML, like Gecko) Chrome/129.0.0.0 Safari/537.36" version="24.7.16" pages="2">
  <diagram id="9Ol5aUBI6fZ-lyk_kM6U" name="Page-2">
    <mxGraphModel dx="1055" dy="736" grid="1" gridSize="10" guides="1" tooltips="1" connect="1" arrows="1" fold="1" page="1" pageScale="1" pageWidth="1169" pageHeight="827" math="0" shadow="0">
      <root>
        <mxCell id="0" />
        <mxCell id="1" parent="0" />
        <mxCell id="7WOWIIeIcwD_WGRZbpR3-1" value="" style="rounded=0;whiteSpace=wrap;html=1;fillColor=none;" vertex="1" parent="1">
          <mxGeometry x="400" y="160" width="165" height="210" as="geometry" />
        </mxCell>
        <mxCell id="OSHusnXTL472bYSLmm0P-1" value="" style="shape=cylinder3;whiteSpace=wrap;html=1;boundedLbl=1;backgroundOutline=1;size=15;" parent="1" vertex="1">
          <mxGeometry x="60" y="200" width="60" height="80" as="geometry" />
        </mxCell>
        <mxCell id="OSHusnXTL472bYSLmm0P-2" value="&lt;font style=&quot;font-size: 15px;&quot;&gt;&lt;b&gt;KNMI Data Source&lt;/b&gt;&lt;/font&gt;" style="text;html=1;align=center;verticalAlign=middle;resizable=0;points=[];autosize=1;strokeColor=none;fillColor=none;" parent="1" vertex="1">
          <mxGeometry x="20" y="290" width="150" height="30" as="geometry" />
        </mxCell>
        <mxCell id="OSHusnXTL472bYSLmm0P-8" value="" style="edgeStyle=orthogonalEdgeStyle;rounded=0;orthogonalLoop=1;jettySize=auto;html=1;exitX=1;exitY=0.5;exitDx=0;exitDy=0;exitPerimeter=0;" parent="1" source="OSHusnXTL472bYSLmm0P-1" target="OSHusnXTL472bYSLmm0P-7" edge="1">
          <mxGeometry relative="1" as="geometry">
            <mxPoint x="165" y="240" as="sourcePoint" />
          </mxGeometry>
        </mxCell>
        <mxCell id="OSHusnXTL472bYSLmm0P-18" value="" style="edgeStyle=orthogonalEdgeStyle;rounded=0;orthogonalLoop=1;jettySize=auto;html=1;" parent="1" source="OSHusnXTL472bYSLmm0P-7" target="OSHusnXTL472bYSLmm0P-17" edge="1">
          <mxGeometry relative="1" as="geometry" />
        </mxCell>
        <mxCell id="OSHusnXTL472bYSLmm0P-25" value="" style="rounded=0;whiteSpace=wrap;html=1;fillColor=none;" parent="1" vertex="1">
          <mxGeometry x="210" y="160" width="165" height="210" as="geometry" />
        </mxCell>
        <mxCell id="OSHusnXTL472bYSLmm0P-7" value="Data Extractor" style="whiteSpace=wrap;html=1;" parent="1" vertex="1">
          <mxGeometry x="245" y="214.38" width="100" height="51.25" as="geometry" />
        </mxCell>
        <mxCell id="OSHusnXTL472bYSLmm0P-19" style="edgeStyle=orthogonalEdgeStyle;rounded=0;orthogonalLoop=1;jettySize=auto;html=1;entryX=0;entryY=0.5;entryDx=0;entryDy=0;entryPerimeter=0;" parent="1" source="OSHusnXTL472bYSLmm0P-17" target="7WOWIIeIcwD_WGRZbpR3-4" edge="1">
          <mxGeometry relative="1" as="geometry">
            <mxPoint x="585" y="240.63" as="targetPoint" />
          </mxGeometry>
        </mxCell>
        <mxCell id="OSHusnXTL472bYSLmm0P-17" value="Transform &lt;br&gt;and Load" style="whiteSpace=wrap;html=1;" parent="1" vertex="1">
          <mxGeometry x="430" y="212.82" width="97.5" height="55.62" as="geometry" />
        </mxCell>
        <mxCell id="OSHusnXTL472bYSLmm0P-26" value="&lt;div&gt;Raw data&lt;/div&gt;.nc" style="strokeWidth=2;html=1;shape=mxgraph.flowchart.document2;whiteSpace=wrap;size=0.25;" parent="1" vertex="1">
          <mxGeometry x="240" y="290" width="65" height="70" as="geometry" />
        </mxCell>
        <mxCell id="OSHusnXTL472bYSLmm0P-27" style="edgeStyle=orthogonalEdgeStyle;rounded=0;orthogonalLoop=1;jettySize=auto;html=1;entryX=0.5;entryY=0;entryDx=0;entryDy=0;entryPerimeter=0;exitX=0.25;exitY=1;exitDx=0;exitDy=0;" parent="1" source="OSHusnXTL472bYSLmm0P-7" target="OSHusnXTL472bYSLmm0P-26" edge="1">
          <mxGeometry relative="1" as="geometry" />
        </mxCell>
        <mxCell id="OSHusnXTL472bYSLmm0P-28" value="&amp;lt; API &amp;gt;" style="text;html=1;align=center;verticalAlign=middle;resizable=0;points=[];autosize=1;strokeColor=none;fillColor=none;" parent="1" vertex="1">
          <mxGeometry x="135" y="210.63" width="60" height="30" as="geometry" />
        </mxCell>
        <mxCell id="OSHusnXTL472bYSLmm0P-30" value="Data Extractor&lt;br&gt;&lt;font face=&quot;Courier New&quot;&gt;extractor.py&lt;/font&gt;" style="text;html=1;align=left;verticalAlign=middle;resizable=0;points=[];autosize=1;strokeColor=none;fillColor=none;" parent="1" vertex="1">
          <mxGeometry x="225" y="160" width="110" height="40" as="geometry" />
        </mxCell>
        <mxCell id="OSHusnXTL472bYSLmm0P-37" value="" style="shape=image;verticalLabelPosition=bottom;labelBackgroundColor=default;verticalAlign=top;aspect=fixed;imageAspect=0;image=https://dash.plotly.com/assets/images/language_icons/python_50px.svg;" parent="1" vertex="1">
          <mxGeometry x="505" y="310.62" width="49.38" height="49.38" as="geometry" />
        </mxCell>
        <mxCell id="f3qinroSH5ih9pkfO1Uu-2" value="&lt;h1 style=&quot;margin-top: 0px;&quot;&gt;Weather Data Extractor Project&lt;/h1&gt;&lt;div&gt;The following diagram shows the main components used to build a pipeline that extracts data from KNMI sources and saves them into a database.&lt;/div&gt;&lt;div&gt;&lt;br&gt;&lt;/div&gt;&lt;div&gt;https://developer.dataplatform.knmi.nl/apis/&lt;br&gt;&lt;br&gt;&lt;/div&gt;" style="text;html=1;whiteSpace=wrap;overflow=hidden;rounded=0;" parent="1" vertex="1">
          <mxGeometry x="40" y="10" width="470" height="130" as="geometry" />
        </mxCell>
        <mxCell id="7WOWIIeIcwD_WGRZbpR3-2" value="Data Loader&lt;br&gt;&lt;font face=&quot;Courier New&quot;&gt;loader.py&lt;/font&gt;" style="text;html=1;align=left;verticalAlign=middle;resizable=0;points=[];autosize=1;strokeColor=none;fillColor=none;" vertex="1" parent="1">
          <mxGeometry x="410" y="160" width="90" height="40" as="geometry" />
        </mxCell>
        <mxCell id="7WOWIIeIcwD_WGRZbpR3-3" value="" style="shape=image;verticalLabelPosition=bottom;labelBackgroundColor=default;verticalAlign=top;aspect=fixed;imageAspect=0;image=https://dash.plotly.com/assets/images/language_icons/python_50px.svg;" vertex="1" parent="1">
          <mxGeometry x="320" y="310.62" width="49.38" height="49.38" as="geometry" />
        </mxCell>
        <mxCell id="7WOWIIeIcwD_WGRZbpR3-4" value="" style="shape=cylinder3;whiteSpace=wrap;html=1;boundedLbl=1;backgroundOutline=1;size=15;" vertex="1" parent="1">
          <mxGeometry x="615" y="200" width="60" height="80" as="geometry" />
        </mxCell>
        <mxCell id="7WOWIIeIcwD_WGRZbpR3-5" value="&lt;font style=&quot;font-size: 15px;&quot;&gt;&lt;b&gt;Postgres DB&lt;/b&gt;&lt;/font&gt;" style="text;html=1;align=center;verticalAlign=middle;resizable=0;points=[];autosize=1;strokeColor=none;fillColor=none;" vertex="1" parent="1">
          <mxGeometry x="590" y="281" width="110" height="30" as="geometry" />
        </mxCell>
        <mxCell id="7WOWIIeIcwD_WGRZbpR3-6" value="" style="shape=image;verticalLabelPosition=bottom;labelBackgroundColor=default;verticalAlign=top;aspect=fixed;imageAspect=0;image=https://upload.wikimedia.org/wikipedia/commons/2/29/Postgresql_elephant.svg;" vertex="1" parent="1">
          <mxGeometry x="659.62" y="239.36" width="40.38" height="41.64" as="geometry" />
        </mxCell>
        <mxCell id="7WOWIIeIcwD_WGRZbpR3-12" style="edgeStyle=orthogonalEdgeStyle;rounded=0;orthogonalLoop=1;jettySize=auto;html=1;entryX=0.5;entryY=1;entryDx=0;entryDy=0;" edge="1" parent="1" source="7WOWIIeIcwD_WGRZbpR3-8" target="OSHusnXTL472bYSLmm0P-25">
          <mxGeometry relative="1" as="geometry" />
        </mxCell>
        <mxCell id="7WOWIIeIcwD_WGRZbpR3-13" style="edgeStyle=orthogonalEdgeStyle;rounded=0;orthogonalLoop=1;jettySize=auto;html=1;entryX=0.5;entryY=1;entryDx=0;entryDy=0;" edge="1" parent="1" source="7WOWIIeIcwD_WGRZbpR3-8" target="7WOWIIeIcwD_WGRZbpR3-1">
          <mxGeometry relative="1" as="geometry" />
        </mxCell>
        <mxCell id="7WOWIIeIcwD_WGRZbpR3-8" value="" style="rounded=0;whiteSpace=wrap;html=1;fillColor=none;" vertex="1" parent="1">
          <mxGeometry x="210" y="430" width="355" height="80" as="geometry" />
        </mxCell>
        <mxCell id="7WOWIIeIcwD_WGRZbpR3-9" value="&lt;b&gt;Orchestration with Airflow&lt;/b&gt;&lt;div&gt;&lt;br&gt;&lt;/div&gt;&lt;div&gt;Scheduled every 10 min&lt;/div&gt;" style="text;html=1;align=left;verticalAlign=middle;resizable=0;points=[];autosize=1;strokeColor=none;fillColor=none;" vertex="1" parent="1">
          <mxGeometry x="215" y="430" width="170" height="60" as="geometry" />
        </mxCell>
        <mxCell id="7WOWIIeIcwD_WGRZbpR3-11" value="" style="shape=image;verticalLabelPosition=bottom;labelBackgroundColor=default;verticalAlign=top;aspect=fixed;imageAspect=0;image=https://airflow.apache.org/docs/apache-airflow/1.10.6/_images/pin_large.png;" vertex="1" parent="1">
          <mxGeometry x="509.69000000000005" y="460" width="40" height="40" as="geometry" />
        </mxCell>
      </root>
    </mxGraphModel>
  </diagram>
  <diagram name="Schema" id="e56a1550-8fbb-45ad-956c-1786394a9013">
    <mxGraphModel dx="1194" dy="540" grid="1" gridSize="10" guides="1" tooltips="1" connect="1" arrows="1" fold="1" page="1" pageScale="1" pageWidth="1100" pageHeight="850" background="none" math="0" shadow="0">
      <root>
        <mxCell id="0" />
        <mxCell id="1" parent="0" />
        <mxCell id="OdP9M_-ECtspS7WG8TOW-9" value="" style="edgeStyle=orthogonalEdgeStyle;rounded=0;orthogonalLoop=1;jettySize=auto;html=1;exitX=1.006;exitY=0.645;exitDx=0;exitDy=0;exitPerimeter=0;" parent="1" source="OdP9M_-ECtspS7WG8TOW-2" target="OdP9M_-ECtspS7WG8TOW-7" edge="1">
          <mxGeometry relative="1" as="geometry" />
        </mxCell>
        <mxCell id="OdP9M_-ECtspS7WG8TOW-17" value="" style="edgeStyle=orthogonalEdgeStyle;rounded=0;orthogonalLoop=1;jettySize=auto;html=1;exitX=1;exitY=0.5;exitDx=0;exitDy=0;" parent="1" source="OdP9M_-ECtspS7WG8TOW-2" target="OdP9M_-ECtspS7WG8TOW-15" edge="1">
          <mxGeometry relative="1" as="geometry" />
        </mxCell>
        <mxCell id="OdP9M_-ECtspS7WG8TOW-1" value="(Collection)&lt;br&gt;Character" style="swimlane;childLayout=stackLayout;horizontal=1;startSize=50;horizontalStack=0;rounded=1;fontSize=14;fontStyle=0;strokeWidth=2;resizeParent=0;resizeLast=1;shadow=0;dashed=0;align=center;arcSize=4;whiteSpace=wrap;html=1;" parent="1" vertex="1">
          <mxGeometry x="310" y="110" width="160" height="160" as="geometry" />
        </mxCell>
        <mxCell id="OdP9M_-ECtspS7WG8TOW-2" value="+id&lt;br&gt;+name&lt;br&gt;+description&lt;div&gt;+thumbnail {} : Thumbnail&lt;/div&gt;&lt;div&gt;+comics {} : ComicList&lt;br&gt;&lt;div&gt;&lt;br&gt;&lt;/div&gt;&lt;/div&gt;" style="align=left;strokeColor=none;fillColor=none;spacingLeft=4;fontSize=12;verticalAlign=top;resizable=0;rotatable=0;part=1;html=1;" parent="OdP9M_-ECtspS7WG8TOW-1" vertex="1">
          <mxGeometry y="50" width="160" height="110" as="geometry" />
        </mxCell>
        <mxCell id="OdP9M_-ECtspS7WG8TOW-12" value="" style="edgeStyle=orthogonalEdgeStyle;rounded=0;orthogonalLoop=1;jettySize=auto;html=1;" parent="1" source="OdP9M_-ECtspS7WG8TOW-7" target="OdP9M_-ECtspS7WG8TOW-10" edge="1">
          <mxGeometry relative="1" as="geometry" />
        </mxCell>
        <mxCell id="OdP9M_-ECtspS7WG8TOW-7" value="(Collection)&lt;br&gt;ComicList" style="swimlane;childLayout=stackLayout;horizontal=1;startSize=50;horizontalStack=0;rounded=1;fontSize=14;fontStyle=0;strokeWidth=2;resizeParent=0;resizeLast=1;shadow=0;dashed=0;align=center;arcSize=4;whiteSpace=wrap;html=1;" parent="1" vertex="1">
          <mxGeometry x="540" y="265" width="160" height="160" as="geometry" />
        </mxCell>
        <mxCell id="OdP9M_-ECtspS7WG8TOW-8" value="+available : int&lt;br&gt;+collectionURI : str&lt;br&gt;+items [] : ComicSummary&lt;div&gt;+returned : int&lt;/div&gt;&lt;div&gt;&lt;div&gt;&lt;br&gt;&lt;/div&gt;&lt;/div&gt;" style="align=left;strokeColor=none;fillColor=none;spacingLeft=4;fontSize=12;verticalAlign=top;resizable=0;rotatable=0;part=1;html=1;" parent="OdP9M_-ECtspS7WG8TOW-7" vertex="1">
          <mxGeometry y="50" width="160" height="110" as="geometry" />
        </mxCell>
        <mxCell id="OdP9M_-ECtspS7WG8TOW-10" value="(Document) ComicSummary" style="swimlane;childLayout=stackLayout;horizontal=1;startSize=50;horizontalStack=0;rounded=1;fontSize=14;fontStyle=0;strokeWidth=2;resizeParent=0;resizeLast=1;shadow=0;dashed=0;align=center;arcSize=4;whiteSpace=wrap;html=1;" parent="1" vertex="1">
          <mxGeometry x="780" y="292.5" width="160" height="105" as="geometry" />
        </mxCell>
        <mxCell id="OdP9M_-ECtspS7WG8TOW-11" value="+resourceURI&lt;br&gt;+name" style="align=left;strokeColor=none;fillColor=none;spacingLeft=4;fontSize=12;verticalAlign=top;resizable=0;rotatable=0;part=1;html=1;" parent="OdP9M_-ECtspS7WG8TOW-10" vertex="1">
          <mxGeometry y="50" width="160" height="55" as="geometry" />
        </mxCell>
        <mxCell id="OdP9M_-ECtspS7WG8TOW-15" value="(Document)&lt;br&gt;Thumbnail" style="swimlane;childLayout=stackLayout;horizontal=1;startSize=50;horizontalStack=0;rounded=1;fontSize=14;fontStyle=0;strokeWidth=2;resizeParent=0;resizeLast=1;shadow=0;dashed=0;align=center;arcSize=4;whiteSpace=wrap;html=1;" parent="1" vertex="1">
          <mxGeometry x="570" y="60" width="160" height="100" as="geometry" />
        </mxCell>
        <mxCell id="OdP9M_-ECtspS7WG8TOW-16" value="+path&lt;br&gt;+extension&lt;div&gt;&lt;div&gt;&lt;br&gt;&lt;/div&gt;&lt;/div&gt;" style="align=left;strokeColor=none;fillColor=none;spacingLeft=4;fontSize=12;verticalAlign=top;resizable=0;rotatable=0;part=1;html=1;" parent="OdP9M_-ECtspS7WG8TOW-15" vertex="1">
          <mxGeometry y="50" width="160" height="50" as="geometry" />
        </mxCell>
      </root>
    </mxGraphModel>
  </diagram>
</mxfile>
